<?xml version="1.0" encoding="UTF-8"?>
<svg xmlns="http://www.w3.org/2000/svg" version="1.1" viewBox="0 0 84.6 87.8">
  <!-- Generator: Adobe Illustrator 28.7.1, SVG Export Plug-In . SVG Version: 1.2.0 Build 142)  -->
  <g>
    <g id="Layer_1">
      <path d="M84.6,40.4c-4.8-4.8-10.9-7.9-17.6-9V0h-10v31.2c-6.9,1-13.3,4.2-18.2,9.1-2.9,2.9-6.6,5-10.7,5.9V0h-10v46.4c-4.2-.9-8-3-11-6l-7.1,7.1c4.9,4.9,11.2,8.1,18.1,9.1v31.3h10v-31.3c6.7-1.1,12.9-4.2,17.8-9.1,3-3.1,6.9-5.2,11.1-6v46.4h10v-46.3c4,1,7.6,3,10.5,5.9l7.1-7.1Z"/>
    </g>
  </g>
</svg>